<svg width="24" height="24" viewBox="0 0 24 24" fill="none" xmlns="http://www.w3.org/2000/svg">
<path d="M12.4287 7.25725L13.7612 5.03654L17.1965 5.46595L18.5 7.63849V10.3206L12.0145 18.1959L5.93878 10.2507L5.05633 8.04458L6.34555 5.89588L9.35443 4.60636L11.6159 7.32009L12.0665 7.86089L12.4287 7.25725Z" fill="white" stroke="white"/>
<path d="M11.9 7.0948C10.6998 1.47892 1.40879 5.90389 5.76035 11.6018C10.1119 17.2996 12.4 19.4908 12.4 19.4908" stroke="white"/>
<path d="M11.8941 7.0948C13.0943 1.47892 22.7304 5.90389 18.3788 11.6018C14.0273 17.2996 11.7 19.5 11.7 19.5" stroke="white"/>
<path d="M11.391 6.70752L12.4043 6.70757L12.3834 7.24079H11.391V6.70752Z" fill="white"/>
</svg>